<svg width="34" height="34" viewBox="0 0 34 34" fill="none" xmlns="http://www.w3.org/2000/svg">
<path d="M21.2857 2H29.8571C31.0406 2 32 2.95939 32 4.14286V12.7143C32 13.8978 31.0406 14.8571 29.8571 14.8571H21.2857C20.1022 14.8571 19.1429 13.8978 19.1429 12.7143V4.14286C19.1429 2.95939 20.1022 2 21.2857 2ZM4.14286 2H12.7143C13.8978 2 14.8571 2.95939 14.8571 4.14286V12.7143C14.8571 13.8978 13.8978 14.8571 12.7143 14.8571H4.14286C2.95939 14.8571 2 13.8978 2 12.7143V4.14286C2 2.95939 2.95939 2 4.14286 2ZM21.2857 19.1429H29.8571C31.0406 19.1429 32 20.1022 32 21.2857V29.8571C32 31.0406 31.0406 32 29.8571 32H21.2857C20.1022 32 19.1429 31.0406 19.1429 29.8571V21.2857C19.1429 20.1022 20.1022 19.1429 21.2857 19.1429ZM4.14286 19.1429H12.7143C13.8978 19.1429 14.8571 20.1022 14.8571 21.2857V29.8571C14.8571 31.0406 13.8978 32 12.7143 32H4.14286C2.95939 32 2 31.0406 2 29.8571V21.2857C2 20.1022 2.95939 19.1429 4.14286 19.1429Z" stroke="#212C5F" stroke-width="3" stroke-linecap="round" stroke-linejoin="round"/>
</svg>
