<svg width="40" height="40" viewBox="0 0 40 40" fill="none" xmlns="http://www.w3.org/2000/svg">
<path d="M20 6.25C19.337 6.25 18.7011 6.51339 18.2322 6.98223C17.7634 7.45107 17.5 8.08696 17.5 8.75C17.5 9.41304 17.7634 10.0489 18.2322 10.5178C18.7011 10.9866 19.337 11.25 20 11.25C20.663 11.25 21.2989 10.9866 21.7678 10.5178C22.2366 10.0489 22.5 9.41304 22.5 8.75C22.5 8.08696 22.2366 7.45107 21.7678 6.98223C21.2989 6.51339 20.663 6.25 20 6.25V6.25ZM15 8.75C15 7.42392 15.5268 6.15215 16.4645 5.21447C17.4021 4.27678 18.6739 3.75 20 3.75C21.3261 3.75 22.5979 4.27678 23.5355 5.21447C24.4732 6.15215 25 7.42392 25 8.75C25 10.0761 24.4732 11.3479 23.5355 12.2855C22.5979 13.2232 21.3261 13.75 20 13.75C18.6739 13.75 17.4021 13.2232 16.4645 12.2855C15.5268 11.3479 15 10.0761 15 8.75V8.75ZM31.875 7.5C31.3777 7.5 30.9008 7.69754 30.5492 8.04917C30.1975 8.40081 30 8.87772 30 9.375C30 9.87228 30.1975 10.3492 30.5492 10.7008C30.9008 11.0525 31.3777 11.25 31.875 11.25C32.3723 11.25 32.8492 11.0525 33.2008 10.7008C33.5525 10.3492 33.75 9.87228 33.75 9.375C33.75 8.87772 33.5525 8.40081 33.2008 8.04917C32.8492 7.69754 32.3723 7.5 31.875 7.5ZM27.5 9.375C27.5 8.80047 27.6132 8.23156 27.833 7.70076C28.0529 7.16996 28.3752 6.68766 28.7814 6.28141C29.1877 5.87515 29.67 5.55289 30.2008 5.33303C30.7316 5.11316 31.3005 5 31.875 5C32.4495 5 33.0184 5.11316 33.5492 5.33303C34.08 5.55289 34.5623 5.87515 34.9686 6.28141C35.3748 6.68766 35.6971 7.16996 35.917 7.70076C36.1368 8.23156 36.25 8.80047 36.25 9.375C36.25 10.5353 35.7891 11.6481 34.9686 12.4686C34.1481 13.2891 33.0353 13.75 31.875 13.75C30.7147 13.75 29.6019 13.2891 28.7814 12.4686C27.9609 11.6481 27.5 10.5353 27.5 9.375V9.375ZM6.25 9.375C6.25 8.87772 6.44754 8.40081 6.79917 8.04917C7.15081 7.69754 7.62772 7.5 8.125 7.5C8.62228 7.5 9.09919 7.69754 9.45083 8.04917C9.80246 8.40081 10 8.87772 10 9.375C10 9.87228 9.80246 10.3492 9.45083 10.7008C9.09919 11.0525 8.62228 11.25 8.125 11.25C7.62772 11.25 7.15081 11.0525 6.79917 10.7008C6.44754 10.3492 6.25 9.87228 6.25 9.375V9.375ZM8.125 5C6.96468 5 5.85188 5.46094 5.03141 6.28141C4.21094 7.10188 3.75 8.21468 3.75 9.375C3.75 10.5353 4.21094 11.6481 5.03141 12.4686C5.85188 13.2891 6.96468 13.75 8.125 13.75C9.28532 13.75 10.3981 13.2891 11.2186 12.4686C12.0391 11.6481 12.5 10.5353 12.5 9.375C12.5 8.21468 12.0391 7.10188 11.2186 6.28141C10.3981 5.46094 9.28532 5 8.125 5ZM10.8138 30.6312C10.2484 31.0039 9.59273 31.2165 8.91629 31.2465C8.23986 31.2765 7.56792 31.1229 6.97179 30.8018C6.37565 30.4807 5.87758 30.0042 5.53041 29.4229C5.18325 28.8416 4.99996 28.1771 5 27.5V19.375C5 19.2092 5.06585 19.0503 5.18306 18.9331C5.30027 18.8158 5.45924 18.75 5.625 18.75H10.6638C10.7778 17.8348 11.1439 16.9692 11.7212 16.25H5.625C4.7962 16.25 4.00134 16.5792 3.41529 17.1653C2.82924 17.7513 2.5 18.5462 2.5 19.375V27.5C2.49968 28.5763 2.77732 29.6345 3.30605 30.572C3.83477 31.5096 4.59665 32.2946 5.51788 32.8513C6.43912 33.4079 7.48849 33.7171 8.56435 33.7491C9.6402 33.7811 10.7061 33.5347 11.6587 33.0338C11.2683 32.2754 10.984 31.467 10.8138 30.6312V30.6312ZM28.3413 33.0338C29.2939 33.5347 30.3598 33.7811 31.4357 33.7491C32.5115 33.7171 33.5609 33.4079 34.4821 32.8513C35.4034 32.2946 36.1652 31.5096 36.694 30.572C37.2227 29.6345 37.5003 28.5763 37.5 27.5V19.375C37.5 18.5462 37.1708 17.7513 36.5847 17.1653C35.9987 16.5792 35.2038 16.25 34.375 16.25H28.2787C28.8556 16.9695 29.2217 17.8349 29.3362 18.75H34.375C34.5408 18.75 34.6997 18.8158 34.8169 18.9331C34.9342 19.0503 35 19.2092 35 19.375V27.5C35 28.1771 34.8167 28.8416 34.4696 29.4229C34.1224 30.0042 33.6243 30.4807 33.0282 30.8018C32.4321 31.1229 31.7601 31.2765 31.0837 31.2465C30.4073 31.2165 29.7516 31.0039 29.1863 30.6312C29.016 31.467 28.7317 32.2754 28.3413 33.0338V33.0338ZM15.625 16.25C14.7962 16.25 14.0013 16.5792 13.4153 17.1653C12.8292 17.7513 12.5 18.5462 12.5 19.375V28.75C12.5 30.7391 13.2902 32.6468 14.6967 34.0533C16.1032 35.4598 18.0109 36.25 20 36.25C21.9891 36.25 23.8968 35.4598 25.3033 34.0533C26.7098 32.6468 27.5 30.7391 27.5 28.75V19.375C27.5 18.5462 27.1708 17.7513 26.5847 17.1653C25.9987 16.5792 25.2038 16.25 24.375 16.25H15.625ZM15 19.375C15 19.2092 15.0658 19.0503 15.1831 18.9331C15.3003 18.8158 15.4592 18.75 15.625 18.75H24.375C24.5408 18.75 24.6997 18.8158 24.8169 18.9331C24.9342 19.0503 25 19.2092 25 19.375V28.75C25 30.0761 24.4732 31.3479 23.5355 32.2855C22.5979 33.2232 21.3261 33.75 20 33.75C18.6739 33.75 17.4021 33.2232 16.4645 32.2855C15.5268 31.3479 15 30.0761 15 28.75V19.375Z" fill="#212C5F"/>
</svg>
